<?xml version="1.0" encoding="utf-8"?>
<!-- Generator: Adobe Illustrator 25.4.1, SVG Export Plug-In . SVG Version: 6.00 Build 0)  -->
<svg version="1.1" id="Layer_1" xmlns="http://www.w3.org/2000/svg" xmlns:xlink="http://www.w3.org/1999/xlink" x="0px" y="0px"
	 viewBox="0 0 61.5 51.557" enable-background="new 0 0 61.5 51.557" xml:space="preserve">
<g>
	<path d="M60.75,51.557h-60c-0.414,0-0.75-0.336-0.75-0.75s0.336-0.75,0.75-0.75h60c0.414,0,0.75,0.336,0.75,0.75
		S61.164,51.557,60.75,51.557z"/>
	<g>
		<rect x="43.589" y="0.75" fill="#F6F3F8" width="11.718" height="50.057"/>
		<path d="M55.307,51.557H43.589c-0.414,0-0.75-0.336-0.75-0.75V0.75c0-0.414,0.336-0.75,0.75-0.75h11.718
			c0.414,0,0.75,0.336,0.75,0.75v50.057C56.057,51.221,55.721,51.557,55.307,51.557z M44.339,50.057h10.218V1.5H44.339V50.057z"/>
	</g>
	<g>
		<rect x="31.871" y="21.835" fill="#F6F3F8" width="11.718" height="28.972"/>
		<path d="M43.589,51.557H31.871c-0.414,0-0.75-0.336-0.75-0.75V21.835c0-0.414,0.336-0.75,0.75-0.75h11.718
			c0.414,0,0.75,0.336,0.75,0.75v28.972C44.339,51.221,44.003,51.557,43.589,51.557z M32.621,50.057h10.218V22.585H32.621V50.057z"
			/>
	</g>
	<g>
		<rect x="20.152" y="15.359" fill="#F6F3F8" width="11.718" height="35.447"/>
		<path d="M31.871,51.557H20.153c-0.414,0-0.75-0.336-0.75-0.75V15.36c0-0.414,0.336-0.75,0.75-0.75h11.718
			c0.414,0,0.75,0.336,0.75,0.75v35.447C32.621,51.221,32.285,51.557,31.871,51.557z M20.903,50.057h10.218V16.11H20.903V50.057z"/>
	</g>
	<g>
		<rect x="8.434" y="32.351" fill="#F6F3F8" width="11.718" height="18.456"/>
		<path d="M20.153,51.557H8.434c-0.414,0-0.75-0.336-0.75-0.75V32.351c0-0.414,0.336-0.75,0.75-0.75h11.719
			c0.414,0,0.75,0.336,0.75,0.75v18.456C20.903,51.221,20.567,51.557,20.153,51.557z M9.184,50.057h10.219V33.101H9.184V50.057z"/>
	</g>
</g>
</svg>
