<?xml version="1.0" encoding="utf-8"?>
<!-- Generator: Adobe Illustrator 25.4.1, SVG Export Plug-In . SVG Version: 6.00 Build 0)  -->
<svg version="1.1" id="Layer_1" xmlns="http://www.w3.org/2000/svg" xmlns:xlink="http://www.w3.org/1999/xlink" x="0px" y="0px"
	 viewBox="0 0 61.5 54.436" enable-background="new 0 0 61.5 54.436" xml:space="preserve">
<g>
	<g>
		<polygon fill="#F6F3F8" points="0.75,29.344 22.552,37.229 50.6,13.865 29.006,39.428 52.333,47.655 60.75,0.75 		"/>
		<path d="M52.333,48.404c-0.084,0-0.168-0.014-0.25-0.042l-23.327-8.226c-0.232-0.082-0.41-0.273-0.474-0.511
			c-0.065-0.238-0.008-0.493,0.151-0.681l16.071-19.026L23.032,37.805c-0.205,0.171-0.485,0.22-0.735,0.129L0.495,30.049
			c-0.285-0.103-0.479-0.366-0.494-0.668s0.153-0.583,0.426-0.714l60-28.593c0.253-0.121,0.554-0.089,0.778,0.081
			c0.224,0.17,0.333,0.452,0.283,0.729l-8.417,46.904c-0.039,0.217-0.171,0.405-0.361,0.516
			C52.594,48.37,52.464,48.404,52.333,48.404z M30.28,39.082l21.471,7.572l8.003-44.598L2.693,29.249l19.71,7.128L50.12,13.289
			c0.298-0.25,0.737-0.229,1.012,0.048c0.274,0.276,0.292,0.715,0.041,1.012L30.28,39.082z"/>
	</g>
	<g>
		<polygon fill="#F6F3F8" points="30.391,53.686 29.477,43.214 37.532,46.117 		"/>
		<path d="M30.39,54.436c-0.083,0-0.166-0.014-0.247-0.042c-0.279-0.097-0.475-0.349-0.5-0.644L28.73,43.279
			c-0.022-0.255,0.087-0.503,0.29-0.659c0.204-0.156,0.471-0.198,0.712-0.111l8.055,2.903c0.238,0.086,0.417,0.286,0.475,0.531
			c0.059,0.246-0.01,0.505-0.184,0.689l-7.142,7.569C30.792,54.354,30.593,54.436,30.39,54.436z M30.326,44.318l0.666,7.638
			l5.208-5.521L30.326,44.318z"/>
	</g>
</g>
</svg>
