<?xml version="1.0" encoding="utf-8"?>
<!-- Generator: Adobe Illustrator 25.4.1, SVG Export Plug-In . SVG Version: 6.00 Build 0)  -->
<svg version="1.1" id="Layer_1" xmlns="http://www.w3.org/2000/svg" xmlns:xlink="http://www.w3.org/1999/xlink" x="0px" y="0px"
	 viewBox="0 0 61.5 36.738" enable-background="new 0 0 61.5 36.738" xml:space="preserve">
<g>
	<g>
		<path fill="#F6F3F8" d="M60.75,24.304v2.327c0,1.482-1.044,2.685-2.332,2.685H41.321c-1.287,0-2.332-1.202-2.332-2.685v-2.327
			c0-4.149,2.925-7.516,6.528-7.516h0.812c1.083,0.571,2.278,0.895,3.541,0.895s2.463-0.324,3.541-0.895h0.812
			C57.825,16.788,60.75,20.155,60.75,24.304z M43.359,8.736c0-3.596,2.914-6.51,6.51-6.51c3.596,0,6.51,2.914,6.51,6.51
			s-2.914,6.51-6.51,6.51C46.273,15.246,43.359,12.332,43.359,8.736z"/>
		<path d="M58.419,30.066H41.321c-1.699,0-3.082-1.541-3.082-3.435v-2.327c0-4.559,3.265-8.267,7.278-8.267h0.812
			c0.122,0,0.242,0.029,0.35,0.087c2.036,1.074,4.363,1.07,6.38,0c0.108-0.057,0.229-0.087,0.351-0.087h0.812
			c4.013,0,7.278,3.708,7.278,8.267v2.327C61.5,28.525,60.118,30.066,58.419,30.066z M45.517,17.538
			c-3.186,0-5.778,3.035-5.778,6.767v2.327c0,1.066,0.709,1.935,1.582,1.935h17.098c0.872,0,1.582-0.868,1.582-1.935v-2.327
			c0-3.731-2.592-6.767-5.778-6.767h-0.629c-2.354,1.186-5.072,1.19-7.445,0H45.517z M49.869,15.997c-4.003,0-7.26-3.257-7.26-7.261
			s3.257-7.261,7.26-7.261s7.261,3.257,7.261,7.261S53.873,15.997,49.869,15.997z M49.869,2.975c-3.176,0-5.76,2.584-5.76,5.761
			s2.584,5.761,5.76,5.761s5.761-2.584,5.761-5.761S53.046,2.975,49.869,2.975z"/>
	</g>
	<g>
		<path fill="#F6F3F8" d="M22.511,24.304v2.327c0,1.482-1.044,2.685-2.332,2.685H3.082c-1.287,0-2.332-1.202-2.332-2.685v-2.327
			c0-4.149,2.925-7.516,6.528-7.516H8.09c1.083,0.571,2.278,0.895,3.541,0.895s2.463-0.324,3.541-0.895h0.812
			C19.586,16.788,22.511,20.155,22.511,24.304z M5.12,8.736c0-3.596,2.914-6.51,6.51-6.51s6.51,2.914,6.51,6.51
			s-2.914,6.51-6.51,6.51S5.12,12.332,5.12,8.736z"/>
		<path d="M20.179,30.066H3.081C1.383,30.066,0,28.525,0,26.631v-2.327c0-4.559,3.265-8.267,7.278-8.267H8.09
			c0.122,0,0.242,0.029,0.35,0.087c2.037,1.074,4.363,1.07,6.38,0c0.108-0.057,0.229-0.087,0.351-0.087h0.812
			c4.013,0,7.278,3.708,7.278,8.267v2.327C23.261,28.525,21.879,30.066,20.179,30.066z M7.278,17.538
			c-3.186,0-5.778,3.035-5.778,6.767v2.327c0,1.066,0.709,1.935,1.581,1.935h17.098c0.872,0,1.582-0.868,1.582-1.935v-2.327
			c0-3.731-2.592-6.767-5.778-6.767h-0.629c-2.354,1.186-5.07,1.19-7.445,0H7.278z M11.631,15.997c-4.003,0-7.261-3.257-7.261-7.261
			s3.257-7.261,7.261-7.261s7.26,3.257,7.26,7.261S15.634,15.997,11.631,15.997z M11.631,2.975c-3.176,0-5.761,2.584-5.761,5.761
			s2.584,5.761,5.761,5.761s5.76-2.584,5.76-5.761S14.807,2.975,11.631,2.975z"/>
	</g>
	<g>
		<path fill="#F6F3F8" d="M45.333,29.469v3.027c0,1.928-1.358,3.492-3.033,3.492H20.06c-1.674,0-3.033-1.564-3.033-3.492v-3.027
			c0-5.397,3.804-9.777,8.491-9.777h1.056c1.408,0.743,2.963,1.164,4.606,1.164s3.204-0.421,4.606-1.164h1.056
			C41.529,19.692,45.333,24.072,45.333,29.469z M22.712,9.219c0-4.678,3.79-8.469,8.469-8.469s8.469,3.79,8.469,8.469
			s-3.79,8.469-8.469,8.469S22.712,13.897,22.712,9.219z"/>
		<path d="M42.301,36.738H20.06c-2.086,0-3.783-1.903-3.783-4.242v-3.026c0-5.805,4.146-10.527,9.241-10.527h1.056
			c0.122,0,0.242,0.029,0.35,0.087c2.716,1.434,5.821,1.426,8.511,0c0.108-0.057,0.229-0.087,0.351-0.087h1.056
			c5.096,0,9.241,4.723,9.241,10.527v3.026C46.083,34.834,44.386,36.738,42.301,36.738z M25.519,20.442
			c-4.269,0-7.741,4.05-7.741,9.027v3.026c0,1.512,1.024,2.742,2.283,2.742h22.24c1.259,0,2.283-1.23,2.283-2.742v-3.026
			c0-4.978-3.473-9.027-7.741-9.027h-0.873c-3.028,1.542-6.523,1.548-9.578,0H25.519z M31.18,18.437
			c-5.083,0-9.219-4.136-9.219-9.219S26.097,0,31.18,0s9.219,4.135,9.219,9.218S36.263,18.437,31.18,18.437z M31.18,1.5
			c-4.256,0-7.719,3.462-7.719,7.718s3.462,7.719,7.719,7.719s7.719-3.463,7.719-7.719S35.437,1.5,31.18,1.5z"/>
	</g>
</g>
</svg>
