<?xml version="1.0" encoding="utf-8"?>
<!-- Generator: Adobe Illustrator 25.4.1, SVG Export Plug-In . SVG Version: 6.00 Build 0)  -->
<svg version="1.1" id="Layer_1" xmlns="http://www.w3.org/2000/svg" xmlns:xlink="http://www.w3.org/1999/xlink" x="0px" y="0px"
	 viewBox="0 0 61.5 61.5" enable-background="new 0 0 61.5 61.5" xml:space="preserve">
<g>
	<g>
		<circle fill="#F6F3F8" cx="30.75" cy="30.75" r="30"/>
		<path d="M30.75,61.5C13.795,61.5,0,47.706,0,30.75S13.795,0,30.75,0S61.5,13.794,61.5,30.75S47.706,61.5,30.75,61.5z M30.75,1.5
			C14.622,1.5,1.5,14.621,1.5,30.75S14.622,60,30.75,60S60,46.879,60,30.75S46.879,1.5,30.75,1.5z"/>
	</g>
	<g>
		<path fill="#F6F3F8" d="M30.75,30.75L1.283,36.379c-0.354-1.855-0.533-3.74-0.533-5.629c0-16.458,13.542-30,30-30s30,13.542,30,30
			H30.75z"/>
		<path d="M1.282,37.129c-0.353,0-0.667-0.25-0.736-0.609C0.184,34.623,0,32.682,0,30.75C0,13.794,13.795,0,30.75,0
			S61.5,13.794,61.5,30.75c0,0.414-0.336,0.75-0.75,0.75H30.821L1.424,37.116C1.376,37.125,1.329,37.129,1.282,37.129z M30.75,1.5
			C14.622,1.5,1.5,14.621,1.5,30.75c0,1.588,0.13,3.182,0.388,4.75l28.721-5.486C30.656,30.005,30.703,30,30.75,30h29.241
			C59.591,14.217,46.628,1.5,30.75,1.5z"/>
	</g>
	<g>
		<path fill="#F6F3F8" d="M30.75,30.75L8.865,10.231C14.534,4.185,22.462,0.75,30.75,0.75c16.458,0,30,13.542,30,30H30.75z"/>
		<path d="M60.75,31.5h-30c-0.19,0-0.374-0.072-0.513-0.203L8.351,10.778c-0.145-0.136-0.23-0.324-0.236-0.522
			c-0.006-0.199,0.066-0.393,0.203-0.537C14.108,3.542,22.284,0,30.75,0C47.706,0,61.5,13.794,61.5,30.75
			C61.5,31.164,61.164,31.5,60.75,31.5z M31.047,30h28.944C59.591,14.217,46.628,1.5,30.75,1.5c-7.803,0-15.347,3.163-20.818,8.703
			L31.047,30z"/>
	</g>
	<g>
		<path fill="#F6F3F8" d="M30.75,30.75l-0.053-30c0.018,0,0.035,0,0.053,0c16.458,0,30,13.542,30,30H30.75z"/>
		<path d="M60.75,31.5h-30c-0.414,0-0.749-0.335-0.75-0.749l-0.053-30c0-0.199,0.079-0.39,0.219-0.531
			C30.307,0.079,30.498,0,30.697,0C47.706,0,61.5,13.794,61.5,30.75C61.5,31.164,61.164,31.5,60.75,31.5z M31.499,30h28.492
			C59.597,14.45,47.006,1.874,31.448,1.508L31.499,30z"/>
	</g>
</g>
</svg>
