<?xml version="1.0" encoding="utf-8"?>
<!-- Generator: Adobe Illustrator 25.4.1, SVG Export Plug-In . SVG Version: 6.00 Build 0)  -->
<svg version="1.1" id="Layer_1" xmlns="http://www.w3.org/2000/svg" xmlns:xlink="http://www.w3.org/1999/xlink" x="0px" y="0px"
	 viewBox="0 0 61.391 61.424" enable-background="new 0 0 61.391 61.424" xml:space="preserve">
<g>
	<g>
		<path fill="#F7F4F9" d="M60.641,30.697c0.018,16.538-13.374,29.96-29.913,29.978S0.768,47.3,0.75,30.762
			C0.732,14.224,14.124,0.802,30.663,0.784c0.018,0,0.036,0,0.055,0C47.237,0.79,60.629,14.177,60.641,30.697z"/>
		<path fill="#231F20" d="M30.693,61.424c-8.186,0-15.883-3.184-21.679-8.967C3.21,46.666,0.009,38.962,0,30.763
			C-0.019,13.837,13.736,0.052,30.662,0.034C47.618,0.04,61.377,13.796,61.391,30.696l0,0c0.009,8.199-3.176,15.911-8.967,21.715
			c-5.792,5.804-13.497,9.005-21.695,9.014C30.717,61.424,30.705,61.424,30.693,61.424z M30.717,1.534
			C14.565,1.551,1.482,14.664,1.5,30.761c0.008,7.799,3.053,15.127,8.574,20.635c5.512,5.5,12.834,8.528,20.62,8.528
			c0.012,0,0.022,0,0.034,0c7.799-0.008,15.127-3.053,20.635-8.573s8.537-12.855,8.529-20.653l0,0
			C59.879,14.623,46.792,1.54,30.717,1.534z"/>
	</g>
	<rect x="29.962" y="0.751" fill="#231F20" width="1.5" height="58.963"/>
	<path fill="#231F20" d="M16.162,29.797l-1.5-0.035c0.18-7.603,1.986-15.189,4.958-20.815c3.098-5.865,7.002-9.024,11.116-8.945
		l-0.036,1.5c-3.387-0.088-6.976,2.888-9.753,8.146C18.079,15.076,16.335,22.419,16.162,29.797z"/>
	<path fill="#231F20" d="M45.251,29.797C44.893,14.67,38.19,1.532,30.871,1.532c-0.046,0-0.091,0.001-0.137,0.002l-0.033-1.5
		c0.056-0.001,0.112-0.002,0.169-0.002c8.244,0,15.498,13.54,15.881,29.73L45.251,29.797z"/>
	<path fill="#231F20" d="M30.88,61.394c-0.057,0-0.113-0.001-0.17-0.002l0.036-1.5c3.413,0.069,6.93-3.081,9.704-8.678
		c2.867-5.782,4.617-13.602,4.801-21.452l1.5,0.035c-0.189,8.062-1.996,16.111-4.957,22.084
		C38.749,58.024,34.878,61.394,30.88,61.394z"/>
	<path fill="#231F20" d="M30.532,61.394c-3.999,0-7.868-3.37-10.913-9.513c-2.961-5.973-4.768-14.021-4.958-22.084l1.5-0.035
		c0.185,7.851,1.935,15.67,4.801,21.452c2.774,5.597,6.321,8.783,9.704,8.678l0.036,1.5C30.646,61.393,30.589,61.394,30.532,61.394z
		"/>
	<rect x="0.728" y="29.03" fill="#231F20" width="30.011" height="1.5"/>
	<rect x="30.717" y="29.03" fill="#231F20" width="30.011" height="1.5"/>
	<path fill="#231F20" d="M29.704,19.09c-7.656,0-16.248-0.776-24.809-3.106l0.394-1.447c25.146,6.845,50.625,0.069,50.879,0
		l0.395,1.447C56.39,16.031,44.896,19.09,29.704,19.09z"/>
	<path fill="#231F20" d="M56.168,47.347c-0.254-0.069-25.746-6.843-50.879,0L4.895,45.9c25.539-6.955,51.409-0.07,51.667,0
		L56.168,47.347z"/>
</g>
</svg>
