<?xml version="1.0" encoding="utf-8"?>
<!-- Generator: Adobe Illustrator 25.4.1, SVG Export Plug-In . SVG Version: 6.00 Build 0)  -->
<svg version="1.1" id="Layer_1" xmlns="http://www.w3.org/2000/svg" xmlns:xlink="http://www.w3.org/1999/xlink" x="0px" y="0px"
	 viewBox="0 0 61.489 49.982" enable-background="new 0 0 61.489 49.982" xml:space="preserve">
<g>
	<path fill="#F7F4F9" d="M59.475,11.838c1.469,1.195,1.692,3.355,0.497,4.824c-0.031,0.039-0.064,0.077-0.097,0.114l-26.84,31.356
		c-1.009,1.263-2.85,1.468-4.113,0.46c-0.17-0.136-0.324-0.29-0.46-0.46L1.587,16.776c-1.258-1.487-1.096-3.707,0.366-4.995
		c0,0,12.609-11.031,28.052-11.031C46.306,0.75,59.475,11.838,59.475,11.838z"/>
	<path fill="#231F20" d="M30.742,49.982c-0.83,0-1.63-0.279-2.288-0.805c-0.214-0.171-0.409-0.366-0.578-0.578L1.018,17.265
		c-1.514-1.789-1.316-4.5,0.439-6.046C1.983,10.759,14.459,0,30.005,0c16.34,0,29.333,10.744,29.948,11.261
		c1.783,1.455,2.053,4.088,0.601,5.875L33.604,48.62c-0.597,0.748-1.472,1.23-2.448,1.339
		C31.018,49.975,30.879,49.982,30.742,49.982z M30.005,1.5C15.017,1.5,2.571,12.237,2.447,12.346
		c-1.145,1.009-1.274,2.78-0.287,3.946l26.872,31.352c0.117,0.146,0.231,0.26,0.358,0.362c0.454,0.362,1.023,0.525,1.6,0.462
		c0.578-0.064,1.096-0.35,1.458-0.804l26.944-31.478c0.929-1.143,0.755-2.834-0.391-3.766l-0.01-0.008
		C58.862,12.303,45.831,1.5,30.005,1.5z"/>
	<path d="M31.4,29.614h-1.36c-0.282,0-0.453-0.034-0.514-0.103c-0.099-0.246-0.134-0.514-0.103-0.777
		c0-0.663-0.469-3.715-1.417-9.145c-0.762-4.313-1.143-6.649-1.143-7.007c-0.01-0.879,0.371-1.716,1.04-2.286
		c0.822-0.67,1.868-1.005,2.926-0.937c1.022-0.074,2.026,0.297,2.755,1.017c0.619,0.627,0.965,1.474,0.96,2.355
		c0,0.633-0.511,3.788-1.532,9.465c-0.678,3.727-1.021,5.872-1.029,6.436c0.033,0.301-0.002,0.606-0.103,0.892
		C31.891,29.614,31.674,29.614,31.4,29.614z M30.52,31.648c0.967-0.028,1.901,0.354,2.572,1.052c0.67,0.682,1.036,1.605,1.017,2.561
		c-0.005,0.96-0.372,1.883-1.029,2.583c-0.641,0.742-1.58,1.161-2.561,1.143c-0.913,0.026-1.793-0.345-2.412-1.017
		c-0.637-0.689-0.977-1.6-0.949-2.538c-0.018-0.962,0.301-1.901,0.903-2.652c0.585-0.757,1.502-1.183,2.458-1.143V31.648z"/>
</g>
</svg>
