<?xml version="1.0" encoding="utf-8"?>
<!-- Generator: Adobe Illustrator 25.4.1, SVG Export Plug-In . SVG Version: 6.00 Build 0)  -->
<svg version="1.1" id="Layer_1" xmlns="http://www.w3.org/2000/svg" xmlns:xlink="http://www.w3.org/1999/xlink" x="0px" y="0px"
	 viewBox="0 0 61.5 44.793" enable-background="new 0 0 61.5 44.793" xml:space="preserve">
<g>
	<g>
		<g>
			<g>
				<g>
					<g>
						<g>
							<path fill="#F7F4F9" d="M53.663,35.026c0,0.55-0.45,1-1,1H1.75c-0.55,0-1-0.45-1-1V1.75c0-0.55,0.45-1,1-1h50.913
								c0.55,0,1,0.45,1,1V35.026z"/>
						</g>
						<g>
							<path d="M54.413,35.775c0,0.55-0.45,1-1,1H1c-0.55,0-1-0.45-1-1V1c0-0.55,0.45-1,1-1h52.413c0.55,0,1,0.45,1,1V35.775z
								 M1.5,34.275c0,0.55,0.45,1,1,1h49.413c0.55,0,1-0.45,1-1V2.5c0-0.55-0.45-1-1-1H2.5c-0.55,0-1,0.45-1,1V34.275z"/>
						</g>
					</g>
					<g>
						<g>
							<path fill="#F7F4F9" d="M34.641,44.043H19.785c-0.941,0-1.426-1.124-0.781-1.809l3.652-3.877
								c0.377-0.4,1.136-0.728,1.686-0.728h5.731c0.55,0,1.309,0.328,1.686,0.728l3.66,3.886
								C36.06,42.924,35.577,44.043,34.641,44.043z"/>
						</g>
						<g>
							<path d="M35.598,44.501c-0.526,0.16-1.406,0.292-1.956,0.292H20.785c-0.55,0-1.43-0.132-1.956-0.292
								c0,0-0.424-0.13-0.717-0.808c-0.293-0.68-0.096-1.077-0.096-1.077c0.244-0.493,0.752-1.224,1.129-1.624l3.189-3.384
								c0.377-0.4,1.136-0.728,1.686-0.728h6.378c0.55,0,1.309,0.328,1.686,0.728L35.279,41c0.377,0.4,0.885,1.131,1.128,1.625
								c0,0,0.195,0.395-0.097,1.072C36.018,44.373,35.598,44.501,35.598,44.501z M24.665,38.379c-0.55,0-1.309,0.328-1.686,0.728
								l-2.744,2.913c-0.377,0.4-0.727,0.852-0.778,1.004c0,0,0,0,0.032,0.073c0.031,0.073,0.031,0.073,0.031,0.073
								c0.146,0.067,0.715,0.122,1.265,0.122h12.856c0.55,0,1.117-0.054,1.261-0.12c0,0,0,0,0.031-0.071
								c0.031-0.072,0.031-0.072,0.031-0.072c-0.05-0.15-0.4-0.601-0.777-1.001l-2.752-2.921c-0.377-0.4-1.136-0.728-1.686-0.728
								H24.665z"/>
						</g>
					</g>
				</g>
			</g>
		</g>
	</g>
	<g>
		<path fill="#F7F4F9" d="M60.75,30.389v-4.724h-4.557c-0.208,0-0.515-1.406-0.92-2.128l3.313-3.215l-3.34-3.292l-3.148,3.251
			c-0.842-0.535-1.741-0.912-2.686-1.163v-4.791h-4.725v4.791c-0.945,0.229-1.84,0.587-2.623,1.054l-3.122-3.082l-3.361,3.341
			l3.073,2.886c-0.467,0.785-0.834,1.405-1.064,2.35h-4.241v4.724h4.241c0.251,0.945,0.654,2.119,1.188,2.962l-3.205,3.302
			l3.341,3.39l3.371-3.269c0.722,0.406,1.459,0.738,2.404,0.946v4.007h4.725v-4.007c0.945-0.229,1.682-0.586,2.466-1.055
			l3.051,3.092l3.32-3.342l-3.1-3.287c0.467-0.783,0.814-1.795,1.044-2.74H60.75z M46.891,32.908c-2.479,0-4.489-2.009-4.489-4.489
			c0-2.48,2.011-4.489,4.489-4.489c2.479,0,4.489,2.009,4.489,4.489C51.38,30.899,49.37,32.908,46.891,32.908z"/>
		<path d="M50.162,42.478h-6.225v-4.176c-0.6-0.177-1.104-0.396-1.525-0.607L38.9,41.101l-4.378-4.443l3.325-3.425
			c-0.364-0.703-0.639-1.484-0.824-2.094h-4.424v-6.224h4.426c0.185-0.551,0.417-1.007,0.678-1.463l-3.202-3.008l4.438-4.412
			l3.252,3.211c0.546-0.281,1.13-0.515,1.746-0.699v-4.968h6.225v4.98c0.635,0.205,1.24,0.465,1.808,0.777l3.263-3.37l4.426,4.361
			l-3.48,3.378c0.111,0.271,0.21,0.558,0.303,0.824c0.042,0.121,0.091,0.265,0.137,0.388H61.5v6.224h-4.73
			c-0.165,0.578-0.395,1.245-0.704,1.87l3.227,3.421l-4.366,4.394l-3.178-3.22c-0.453,0.246-0.974,0.49-1.587,0.686V42.478z
			 M45.437,40.978h3.225v-3.847l0.573-0.139c0.761-0.186,1.415-0.466,2.258-0.97l0.505-0.302l2.933,2.972l2.274-2.29l-2.991-3.171
			l0.291-0.487c0.374-0.625,0.714-1.524,0.959-2.533l0.139-0.572H60v-3.224h-3.807c-0.646,0-0.849-0.586-1.129-1.396
			c-0.136-0.394-0.291-0.839-0.445-1.114L54.336,23.4l3.177-3.083l-2.255-2.223l-3.047,3.146l-0.516-0.326
			c-0.745-0.473-1.578-0.833-2.476-1.072l-0.558-0.147v-4.618h-3.225v4.631l-0.573,0.139c-0.874,0.212-1.708,0.548-2.416,0.97
			l-0.499,0.297l-3.006-2.969l-2.284,2.27l2.947,2.769l-0.309,0.518c-0.45,0.755-0.775,1.301-0.979,2.143l-0.139,0.573h-4.081v3.224
			h4.067l0.148,0.558c0.174,0.656,0.548,1.888,1.096,2.755l0.316,0.499l-3.106,3.199l2.304,2.338l3.239-3.142l0.488,0.275
			c0.785,0.441,1.442,0.701,2.197,0.867l0.589,0.13V40.978z M46.891,33.657c-2.889,0-5.239-2.35-5.239-5.238s2.35-5.238,5.239-5.238
			c2.889,0,5.24,2.35,5.24,5.238S49.78,33.657,46.891,33.657z M46.891,24.681c-2.062,0-3.739,1.677-3.739,3.738
			s1.677,3.738,3.739,3.738c2.062,0,3.74-1.677,3.74-3.738S48.953,24.681,46.891,24.681z"/>
	</g>
</g>
</svg>
