<?xml version="1.0" encoding="utf-8"?>
<!-- Generator: Adobe Illustrator 25.4.1, SVG Export Plug-In . SVG Version: 6.00 Build 0)  -->
<svg version="1.1" id="Layer_1" xmlns="http://www.w3.org/2000/svg" xmlns:xlink="http://www.w3.org/1999/xlink" x="0px" y="0px"
	 viewBox="0 0 61.5 68.278" enable-background="new 0 0 61.5 68.278" xml:space="preserve">
<g>
	<g>
		<g>
			<path fill="#F7F4F9" d="M60.75,62.528c0,2.75-2.25,5-5,5h-50c-2.75,0-5-2.25-5-5V6.099c0-2.75,2.25-5,5-5h50c2.75,0,5,2.25,5,5
				V62.528z"/>
		</g>
		<path d="M55.75,68.278h-50c-3.17,0-5.75-2.579-5.75-5.75V6.099c0-3.171,2.58-5.75,5.75-5.75h50c3.17,0,5.75,2.579,5.75,5.75v56.43
			C61.5,65.699,58.92,68.278,55.75,68.278z M5.75,1.849c-2.343,0-4.25,1.906-4.25,4.25v56.43c0,2.344,1.907,4.25,4.25,4.25h50
			c2.343,0,4.25-1.906,4.25-4.25V6.099c0-2.344-1.907-4.25-4.25-4.25H5.75z"/>
	</g>
	<path d="M44.679,12.214H16.822c-0.414,0-0.75-0.336-0.75-0.75V0.75c0-0.414,0.336-0.75,0.75-0.75h27.857
		c0.414,0,0.75,0.336,0.75,0.75v10.714C45.429,11.878,45.093,12.214,44.679,12.214z M17.572,10.714h26.357V1.5H17.572V10.714z"/>
	<g>
		<path d="M13.607,27.028c-0.192,0-0.378-0.074-0.518-0.207l-4.107-3.916c-0.3-0.286-0.311-0.761-0.025-1.061
			c0.287-0.299,0.762-0.311,1.061-0.025l3.564,3.398l6.804-7.138c0.287-0.299,0.761-0.312,1.061-0.025
			c0.3,0.286,0.311,0.761,0.025,1.061l-7.321,7.681c-0.137,0.144-0.326,0.228-0.525,0.232
			C13.619,27.028,13.613,27.028,13.607,27.028z"/>
		<path d="M53.25,20.786H28.607c-0.414,0-0.75-0.336-0.75-0.75s0.336-0.75,0.75-0.75H53.25c0.414,0,0.75,0.336,0.75,0.75
			S53.664,20.786,53.25,20.786z"/>
		<path d="M38.25,25.071h-9.643c-0.414,0-0.75-0.336-0.75-0.75s0.336-0.75,0.75-0.75h9.643c0.414,0,0.75,0.336,0.75,0.75
			S38.664,25.071,38.25,25.071z"/>
	</g>
	<g>
		<path d="M13.607,44.171c-0.186,0-0.372-0.068-0.518-0.207l-4.107-3.915c-0.3-0.286-0.311-0.761-0.025-1.061
			c0.287-0.3,0.761-0.311,1.061-0.025l3.564,3.397l6.804-7.137c0.287-0.299,0.761-0.312,1.061-0.025
			c0.3,0.286,0.311,0.761,0.025,1.061l-7.321,7.68C14.003,44.093,13.805,44.171,13.607,44.171z"/>
		<path d="M53.25,37.929H28.607c-0.414,0-0.75-0.336-0.75-0.75s0.336-0.75,0.75-0.75H53.25c0.414,0,0.75,0.336,0.75,0.75
			S53.664,37.929,53.25,37.929z"/>
		<path d="M38.25,42.214h-9.643c-0.414,0-0.75-0.336-0.75-0.75s0.336-0.75,0.75-0.75h9.643c0.414,0,0.75,0.336,0.75,0.75
			S38.664,42.214,38.25,42.214z"/>
	</g>
	<g>
		<path d="M13.607,61.313c-0.186,0-0.372-0.068-0.518-0.207l-4.107-3.915c-0.3-0.286-0.311-0.761-0.025-1.061
			c0.287-0.3,0.761-0.311,1.061-0.025l3.564,3.397l6.804-7.137c0.287-0.299,0.761-0.312,1.061-0.025
			c0.3,0.286,0.311,0.761,0.025,1.061l-7.321,7.68C14.003,61.235,13.805,61.313,13.607,61.313z"/>
		<path d="M53.25,55.071H28.607c-0.414,0-0.75-0.336-0.75-0.75s0.336-0.75,0.75-0.75H53.25c0.414,0,0.75,0.336,0.75,0.75
			S53.664,55.071,53.25,55.071z"/>
		<path d="M38.25,59.357h-9.643c-0.414,0-0.75-0.336-0.75-0.75s0.336-0.75,0.75-0.75h9.643c0.414,0,0.75,0.336,0.75,0.75
			S38.664,59.357,38.25,59.357z"/>
	</g>
</g>
</svg>
