<?xml version="1.0" encoding="utf-8"?>
<!-- Generator: Adobe Illustrator 25.4.1, SVG Export Plug-In . SVG Version: 6.00 Build 0)  -->
<svg version="1.1" id="Layer_1" xmlns="http://www.w3.org/2000/svg" xmlns:xlink="http://www.w3.org/1999/xlink" x="0px" y="0px"
	 viewBox="0 0 61.5 61.5" enable-background="new 0 0 61.5 61.5" xml:space="preserve">
<g>
	<g>
		<circle fill="#F6F3F8" cx="30.75" cy="30.75" r="30"/>
		<path d="M30.75,61.5C13.794,61.5,0,47.706,0,30.75S13.794,0,30.75,0S61.5,13.794,61.5,30.75S47.706,61.5,30.75,61.5z M30.75,1.5
			C14.622,1.5,1.5,14.622,1.5,30.75S14.622,60,30.75,60S60,46.878,60,30.75S46.878,1.5,30.75,1.5z"/>
	</g>
	<g>
		<g>
			<path fill="#FFFFFF" d="M30.75,8.534c2.856,0,5.172,2.315,5.172,5.172s-2.315,5.172-5.172,5.172
				c-2.856,0-5.172-2.315-5.172-5.172S27.894,8.534,30.75,8.534z"/>
			<path d="M30.75,19.626c-3.265,0-5.921-2.656-5.921-5.921s2.656-5.921,5.921-5.921s5.921,2.656,5.921,5.921
				S34.015,19.626,30.75,19.626z M30.75,9.284c-2.438,0-4.421,1.983-4.421,4.421s1.983,4.421,4.421,4.421s4.421-1.983,4.421-4.421
				S33.188,9.284,30.75,9.284z"/>
		</g>
		<g>
			<path fill="#FFFFFF" d="M47.664,24.813c-4.125,0.974-7.974,1.831-11.8,2.271c0.122,14.512,1.768,17.677,3.597,22.356
				c0.52,1.33-0.138,2.83-1.468,3.349c-1.33,0.52-2.83-0.137-3.349-1.468c-1.251-3.205-2.455-5.837-3.198-11.284h-1.391
				c-0.742,5.437-1.944,8.074-3.198,11.284c-0.519,1.33-2.018,1.988-3.349,1.468c-1.33-0.52-1.987-2.019-1.468-3.349
				c1.826-4.675,3.474-7.835,3.597-22.356c-3.825-0.439-7.675-1.297-11.8-2.271c-1.235-0.292-2-1.53-1.709-2.765
				c0.292-1.236,1.529-2.001,2.765-1.709c13.889,3.28,17.854,3.273,31.715,0c1.235-0.292,2.473,0.473,2.765,1.709
				C49.664,23.284,48.899,24.522,47.664,24.813z"/>
			<path d="M37.051,53.718c-0.455,0-0.909-0.094-1.337-0.282c-0.816-0.357-1.444-1.011-1.769-1.841l-0.381-0.968
				c-1.072-2.708-2.087-5.272-2.768-9.839h-0.091c-0.682,4.573-1.701,7.145-2.776,9.861l-0.373,0.946
				c-0.669,1.713-2.605,2.564-4.321,1.893c-0.83-0.324-1.484-0.952-1.841-1.769c-0.358-0.816-0.376-1.723-0.052-2.552l0.357-0.905
				c1.622-4.09,3.026-7.632,3.181-20.514c-3.752-0.478-7.591-1.349-11.216-2.205c-0.792-0.187-1.465-0.671-1.893-1.364
				c-0.428-0.692-0.561-1.511-0.374-2.303s0.671-1.465,1.364-1.893c0.691-0.428,1.508-0.562,2.303-0.374
				c13.78,3.253,17.591,3.253,31.371,0c1.637-0.383,3.281,0.631,3.667,2.266c0.386,1.636-0.631,3.281-2.267,3.667
				c-3.624,0.856-7.462,1.727-11.215,2.205c0.154,12.883,1.561,16.429,3.185,20.522l0.354,0.897c0.324,0.83,0.306,1.736-0.052,2.553
				c-0.357,0.816-1.012,1.444-1.841,1.768C37.872,53.641,37.461,53.718,37.051,53.718z M29.399,39.287h2.701l0.088,0.648
				c0.655,4.798,1.682,7.392,2.77,10.139l0.384,0.975c0.178,0.456,0.524,0.816,0.973,1.013c0.449,0.197,0.948,0.208,1.405,0.028
				c0.457-0.178,0.817-0.524,1.014-0.973c0.197-0.449,0.207-0.948,0.028-1.404l-0.351-0.89c-1.707-4.303-3.182-8.02-3.297-21.732
				l-0.006-0.674l0.67-0.077c3.884-0.446,7.916-1.359,11.713-2.256l0,0c0.831-0.196,1.348-1.032,1.151-1.863
				c-0.196-0.83-1.03-1.349-1.863-1.151c-13.933,3.29-18.128,3.29-32.06,0c-0.401-0.096-0.818-0.027-1.17,0.189
				c-0.352,0.217-0.598,0.559-0.693,0.961c-0.095,0.403-0.028,0.818,0.189,1.17c0.217,0.352,0.559,0.598,0.961,0.693
				c3.956,0.934,7.828,1.81,11.713,2.256l0.67,0.077l-0.006,0.674c-0.116,13.71-1.588,17.424-3.294,21.724l-0.354,0.898
				c-0.179,0.457-0.168,0.956,0.028,1.405c0.196,0.449,0.557,0.794,1.013,0.973c0.944,0.37,2.01-0.099,2.378-1.042l0.376-0.953
				c1.091-2.754,2.122-5.356,2.777-10.16L29.399,39.287z"/>
		</g>
	</g>
</g>
</svg>
